<svg width="119" height="104" viewBox="0 0 119 104" fill="none" xmlns="http://www.w3.org/2000/svg">
<path d="M59.1804 80.37C59.4453 80.3702 59.6599 80.5855 59.6599 80.8505C59.6597 81.1152 59.4451 81.3297 59.1804 81.33C58.9155 81.33 58.7002 81.1153 58.7 80.8505C58.7 80.5854 58.9153 80.37 59.1804 80.37Z" fill="#CFCFCF" stroke="#BABABA"/>
<path d="M30.71 8.04999V12.35" stroke="#BABABA" stroke-linecap="round" stroke-linejoin="round"/>
<path d="M28.55 10.2H32.8601" stroke="#BABABA" stroke-linecap="round" stroke-linejoin="round"/>
<path d="M19.9949 16.5392C24.9071 16.1961 28.4465 18.3 32.3191 21.174L33.0984 21.759C39.3269 26.4983 46.3132 30.6328 53.9275 32.8801L54.6658 33.092C62.2032 35.1915 70.2138 35.6198 78.0876 35.6652L79.6599 35.6701H79.6638C81.096 35.6601 82.5257 35.6371 83.947 35.6096L88.1804 35.5197C90.0939 35.4791 92.1573 35.2413 94.2576 34.9885C96.3665 34.7345 98.5159 34.4648 100.637 34.3527C104.884 34.1284 108.915 34.5427 112.126 36.8879C114.622 38.8933 116.301 41.7405 116.847 44.8957L116.848 44.9045L116.85 44.9133C118.004 50.3868 117.938 57.1961 116.398 63.5256C114.906 69.6625 112.044 75.2881 107.639 78.8254L107.209 79.1603C102.115 82.9949 95.7691 84.607 89.1687 85.0236C83.3937 85.3881 77.4561 84.836 72.0486 84.0803L69.7654 83.7453H69.7644C56.5355 81.745 43.3533 78.3061 31.2966 72.4748L30.1335 71.9025H30.1326C24.7714 69.2369 18.9547 65.852 13.9666 61.6672C9.13253 57.6116 5.10062 52.8249 2.99878 47.2375L2.80151 46.6945V46.6935L2.55054 45.9562C1.32045 42.2218 0.512617 37.8249 0.750732 33.6389C1.00444 29.18 2.43976 25.0086 5.75854 22.0959C9.65906 18.8733 14.4611 16.9444 19.4988 16.5705L19.9871 16.5392H19.9949Z" fill="#F2F2F2" stroke="#BABABA"/>
<path d="M66.1204 0.72998C66.3852 0.730232 66.5999 0.945505 66.5999 1.21045C66.5996 1.47518 66.3851 1.68969 66.1204 1.68994C65.8554 1.68994 65.6401 1.47533 65.6399 1.21045C65.6399 0.945355 65.8553 0.72998 66.1204 0.72998Z" fill="#CFCFCF" stroke="#BABABA"/>
<path d="M15.2 78.5V82.8" stroke="#BABABA" stroke-linecap="round" stroke-linejoin="round"/>
<path d="M13.05 80.65H17.35" stroke="#BABABA" stroke-linecap="round" stroke-linejoin="round"/>
<path d="M59.5801 99.62C69.7103 99.62 78.8769 99.8763 85.5068 100.29C88.8237 100.497 91.4952 100.743 93.332 101.014C94.2128 101.143 94.8831 101.278 95.3359 101.41C94.8831 101.542 94.2128 101.677 93.332 101.807C91.4952 102.077 88.8237 102.323 85.5068 102.53C78.8769 102.944 69.7103 103.2 59.5801 103.2C49.4499 103.2 40.2832 102.944 33.6533 102.53C30.3365 102.323 27.6649 102.077 25.8281 101.807C24.9468 101.677 24.276 101.542 23.8232 101.41C24.276 101.278 24.9467 101.144 25.8281 101.014C27.6649 100.743 30.3365 100.497 33.6533 100.29C40.2832 99.8763 49.4499 99.62 59.5801 99.62Z" fill="#F2F2F2" stroke="#BABABA"/>
<path d="M33.7783 22.35H97.1895C97.5408 22.35 97.8882 22.4268 98.207 22.5746C98.5258 22.7223 98.809 22.9374 99.0361 23.2054C99.2633 23.4736 99.4291 23.7885 99.5225 24.1273C99.5925 24.3814 99.6203 24.6446 99.6055 24.9066L99.5771 25.1674L99.5762 25.1693L91.5068 74.349V74.35C91.4137 74.9205 91.1189 75.4385 90.6768 75.8109C90.2897 76.1368 89.8114 76.3325 89.3105 76.3724L89.0947 76.3802H25.6807C25.3287 76.38 24.9805 76.3034 24.6611 76.1556C24.3417 76.0078 24.058 75.792 23.8301 75.5238C23.6022 75.2557 23.4353 74.9409 23.3408 74.6019C23.2465 74.2632 23.2269 73.908 23.2832 73.5609L31.3936 24.3812V24.3793C31.4843 23.8124 31.7747 23.2962 32.2119 22.9242C32.5945 22.5988 33.0676 22.402 33.5645 22.3588L33.7783 22.35Z" fill="#D2D2D2" stroke="#BABABA"/>
<path d="M89.8713 20.5639L52.2325 3.75874C51.123 3.26339 49.8221 3.76122 49.3267 4.87068L37.3976 31.5885C36.9022 32.698 37.4001 33.999 38.5095 34.4943L76.1483 51.2994C77.2578 51.7948 78.5587 51.297 79.0541 50.1875L90.9832 23.4696C91.4786 22.3602 90.9807 21.0592 89.8713 20.5639Z" fill="white" stroke="#BABABA" stroke-linecap="round" stroke-linejoin="round"/>
<path d="M57.75 25.74C58.7407 24.3499 60.1816 23.345 61.8285 22.8957C63.4754 22.4464 65.2269 22.5803 66.7864 23.2747C68.3458 23.9691 69.6172 25.1813 70.3852 26.7058C71.1531 28.2304 71.3703 29.9736 71 31.64" stroke="#BABABA" stroke-width="0.68" stroke-linecap="round" stroke-linejoin="round"/>
<path d="M75.7502 22.67C76.0428 22.6701 76.2795 22.9076 76.2795 23.2003C76.2794 23.4928 76.0427 23.7294 75.7502 23.7296C75.4576 23.7296 75.2201 23.4928 75.22 23.2003C75.22 22.9075 75.4575 22.67 75.7502 22.67Z" fill="#BABABA" stroke="#BABABA"/>
<path d="M60.8303 16.01C61.1229 16.0102 61.3596 16.2477 61.3596 16.5403C61.3595 16.8328 61.1228 17.0694 60.8303 17.0696C60.5377 17.0696 60.3002 16.8329 60.3 16.5403C60.3 16.2476 60.5376 16.01 60.8303 16.01Z" fill="#BABABA" stroke="#BABABA"/>
<path d="M88.81 76.86H25.09C24.3147 76.8574 23.572 76.5475 23.0247 75.9983C22.4773 75.4491 22.17 74.7054 22.17 73.93V29C22.1607 28.6102 22.2293 28.2225 22.3717 27.8596C22.5142 27.4966 22.7276 27.1657 22.9996 26.8863C23.2715 26.607 23.5965 26.3846 23.9554 26.2324C24.3144 26.0802 24.7001 26.0012 25.09 26H48.3C48.8386 26.002 49.3662 26.1524 49.8249 26.4346C50.2836 26.7169 50.6556 27.1201 50.9 27.6L54.21 34.08C54.4536 34.5606 54.8254 34.9645 55.2843 35.2468C55.7432 35.5292 56.2712 35.6791 56.81 35.68H88.81C89.5845 35.68 90.3272 35.9876 90.8748 36.5352C91.4224 37.0829 91.73 37.8256 91.73 38.6V73.93C91.73 74.7054 91.4227 75.4491 90.8754 75.9983C90.3281 76.5475 89.5854 76.8574 88.81 76.86Z" fill="white" stroke="#BABABA" stroke-linecap="round" stroke-linejoin="round"/>
<path d="M78.9999 37.21C75.3188 37.208 71.7197 38.2978 68.658 40.3415C65.5963 42.3852 63.2094 45.291 61.7994 48.6914C60.3893 52.0917 60.0193 55.8339 60.7363 59.4445C61.4532 63.0552 63.2248 66.3721 65.8271 68.9757C68.4294 71.5794 71.7453 73.3528 75.3556 74.0717C78.9658 74.7906 82.7082 74.4226 86.1093 73.0144C89.5104 71.6061 92.4175 69.2208 94.4628 66.1602C96.5082 63.0996 97.5999 59.5012 97.5999 55.82C97.5999 50.8861 95.6406 46.1541 92.1527 42.6643C88.6648 39.1745 83.9338 37.2127 78.9999 37.21Z" fill="white" stroke="#BABABA" stroke-linecap="round" stroke-linejoin="round"/>
<path d="M92.24 69.32L97.2 74.28" stroke="#BABABA" stroke-linecap="round" stroke-linejoin="round"/>
<path d="M95.4595 73.8279L97.0008 72.2156C97.5006 71.6927 98.3293 71.6743 98.8523 72.1739L112.225 84.9575C112.748 85.4575 112.767 86.2868 112.267 86.8098L110.726 88.422C110.226 88.9447 109.397 88.9629 108.874 88.4631L95.5012 75.6794C94.9786 75.1795 94.96 74.3508 95.4595 73.8279Z" fill="#D2D2D2" stroke="#BABABA"/>
<path d="M104.38 3.37H108.69" stroke="#BABABA" stroke-linecap="round" stroke-linejoin="round"/>
<path d="M106.54 1.21002V5.52002" stroke="#BABABA" stroke-linecap="round" stroke-linejoin="round"/>
</svg>
