<svg width="12" height="14" viewBox="0 0 12 14" fill="none" xmlns="http://www.w3.org/2000/svg">
<path d="M5.36816 6.46869C6.58194 6.53028 7.73405 7.0392 8.59766 7.90228L8.76562 8.07904C9.58092 8.97988 10.0355 10.1541 10.0371 11.3749V13.1249C10.0371 13.2316 10.0056 13.3351 9.94727 13.4228L9.87988 13.5048C9.779 13.6057 9.6423 13.662 9.5 13.662H0.75C0.643361 13.662 0.539878 13.6305 0.452148 13.5722L0.370117 13.5048C0.26924 13.4039 0.212891 13.2672 0.212891 13.1249V11.3749L0.21875 11.1318C0.280348 9.91801 0.789274 8.76588 1.65234 7.90228L1.8291 7.73529C2.67006 6.97401 3.7488 6.52615 4.88184 6.46869L5.125 6.46283L5.36816 6.46869ZM7.04395 8.0517C5.93058 7.40856 4.5752 7.36871 3.43164 7.93158L3.20605 8.0517C2.01866 8.73704 1.28713 10.0041 1.28711 11.3749V12.5878H8.96289L8.96191 11.3749L8.9541 11.1191C8.875 9.93277 8.24887 8.84911 7.26074 8.18744L7.04395 8.0517ZM10.5713 4.31146C10.7797 4.17833 11.0588 4.20389 11.2402 4.3847L11.3086 4.46771C11.4451 4.67374 11.425 4.95385 11.2461 5.13861L10.6973 5.68744L11.2441 6.23431L11.3135 6.31537C11.3742 6.40316 11.4072 6.50789 11.4082 6.61615L11.3984 6.7226C11.3849 6.79235 11.3578 6.85875 11.3184 6.91791L11.251 7.00092C11.1748 7.07751 11.0772 7.12811 10.9727 7.14838L10.8662 7.15814C10.7225 7.15679 10.5854 7.09845 10.4854 6.99506L9.9375 6.4472L9.38867 6.99603C9.20392 7.17489 8.9238 7.19505 8.71777 7.05853L8.63477 6.99017C8.42801 6.78275 8.42454 6.44736 8.62891 6.23627L9.17773 5.68744L8.62891 5.13861C8.42455 4.92753 8.428 4.59213 8.63477 4.3847L8.71777 4.31635C8.89425 4.19945 9.12509 4.19733 9.30371 4.31146L9.38867 4.37885L9.9375 4.92767L10.4863 4.37885L10.5713 4.31146ZM5.125 0.33783C5.84772 0.33783 6.54083 0.62476 7.05176 1.13568L7.23242 1.33588C7.62966 1.82072 7.8496 2.43008 7.84961 3.06244C7.84961 3.69479 7.62965 4.30417 7.23242 4.789L7.05176 4.9892C6.60471 5.43622 6.01829 5.71235 5.39453 5.77435L5.125 5.78705H5.08398L5.08105 5.78412C4.37443 5.77218 3.69969 5.48888 3.19922 4.9892L3.19824 4.98822C2.68823 4.47739 2.40096 3.78495 2.40039 3.06244L2.41309 2.79291C2.47509 2.16915 2.75123 1.5827 3.19824 1.13568L3.39844 0.955017C3.88328 0.557785 4.49264 0.33783 5.125 0.33783ZM4.95605 1.42084C4.12441 1.50628 3.47565 2.2084 3.47461 3.06244L3.47949 3.18646C3.52583 3.80336 3.91549 4.34752 4.49316 4.58685L4.61035 4.62982C5.19815 4.82319 5.84975 4.67167 6.29199 4.22943L6.37598 4.13861C6.75269 3.70091 6.87293 3.09661 6.69238 2.54779L6.64941 2.4306C6.39414 1.81453 5.79216 1.41205 5.125 1.41205L4.95605 1.42084Z" fill="#545F7D" stroke="#545F7D" stroke-width="0.2"/>
</svg>
